# xmcd CD database file
#
# Track frame offsets:
#	150
#	14877
#	27590
#	44142
#	61167
#	73962
#	88525
#	103797
#	116337
#	131215
#	145867
#	159817
#	172945
#	193627
#
# Disc length: 2752 seconds
#
# Revision: 0
# Processed by: cddbd v1.5.2PL0 Copyright (c) Steve Scherf et al.
# Submitted via: CDex 1.70beta2
#
DISCID=ca0abe0e
DTITLE=Three Of Hearts - Breaking All The Rules
DYEAR=2004
DGENRE=Country
TTITLE0=Ocean Of Trouble
TTITLE1=Behind Those Eyes
TTITLE2=I Made A Wish
TTITLE3=Breaking All The Rules
TTITLE4=A Love For Every Life
TTITLE5=A Girl Can Dream
TTITLE6=Till You Love Someone
TTITLE7=All You Need Is Me
TTITLE8=If Love Had Never Found Its Way
TTITLE9=Let Me Be
TTITLE10=Let Him Go
TTITLE11=It's A Good Thing
TTITLE12=A Room With A View
TTITLE13=Roses For No Reason
EXTD=YEAR: 2004
EXTT0=
EXTT1=
EXTT2=
EXTT3=
EXTT4=
EXTT5=
EXTT6=
EXTT7=
EXTT8=
EXTT9=
EXTT10=
EXTT11=
EXTT12=
EXTT13=
PLAYORDER=
